<?xml version="1.0" encoding="UTF-8" standalone="no"?>
<!-- Created with Inkscape (http://www.inkscape.org/) -->

<svg
   width="162mm"
   height="62.5mm"
   viewBox="0 0 162 62.5"
   version="1.1"
   id="svg5"
   inkscape:version="1.1 (c68e22c387, 2021-05-23)"
   sodipodi:docname="openlink-full-path.svg"
   inkscape:export-filename="/Users/hold3n/trilloop/openlink/openlink.png"
   inkscape:export-xdpi="162.56"
   inkscape:export-ydpi="162.56"
   xmlns:inkscape="http://www.inkscape.org/namespaces/inkscape"
   xmlns:sodipodi="http://sodipodi.sourceforge.net/DTD/sodipodi-0.dtd"
   xmlns="http://www.w3.org/2000/svg"
   xmlns:svg="http://www.w3.org/2000/svg">
  <sodipodi:namedview
     id="namedview7"
     pagecolor="#ffffff"
     bordercolor="#666666"
     borderopacity="1.0"
     inkscape:pageshadow="2"
     inkscape:pageopacity="0.0"
     inkscape:pagecheckerboard="0"
     inkscape:document-units="mm"
     showgrid="false"
     inkscape:zoom="1.5554293"
     inkscape:cx="265.84301"
     inkscape:cy="141.44005"
     inkscape:window-width="1990"
     inkscape:window-height="1324"
     inkscape:window-x="1239"
     inkscape:window-y="80"
     inkscape:window-maximized="0"
     inkscape:current-layer="text1835" />
  <defs
     id="defs2" />
  <g
     inkscape:label="Layer 1"
     inkscape:groupmode="layer"
     id="layer1">
    <g
       aria-label="OpenLink"
       id="text1835"
       style="font-size:19.7556px;line-height:1.25;stroke-width:0.264583">
      <path
         d="m 70.22444,21.995 c -4.365987,0 -7.724439,3.299186 -7.724439,7.566395 0,4.227699 3.397963,7.546639 7.684928,7.546639 4.247454,0 7.526884,-3.299185 7.526884,-7.566394 0,-4.168432 -3.338697,-7.54664 -7.487373,-7.54664 z m -0.1778,2.60774 c 2.844806,0 4.9389,2.113849 4.9389,4.978411 0,2.825051 -2.054582,4.919144 -4.820366,4.919144 -2.765784,0 -4.9389,-2.173116 -4.9389,-4.958655 0,-2.746029 2.15336,-4.9389 4.820366,-4.9389 z"
         style="font-weight:bold;font-family:Evolventa;-inkscape-font-specification:'Evolventa Bold'"
         id="path11931" />
      <path
         d="m 79.489799,40.505998 h 2.627495 V 35.82392 c 1.007535,0.889002 2.015071,1.284114 3.358452,1.284114 3.160896,0 5.472301,-2.449694 5.472301,-5.768635 0,-3.299185 -2.29165,-5.689613 -5.452546,-5.689613 -1.48167,0 -2.746028,0.533402 -3.595519,1.540937 v -1.284114 h -2.410183 z m 5.61059,-12.446028 c 1.857027,0 3.200408,1.422403 3.200408,3.338696 0,1.857026 -1.363137,3.299185 -3.121385,3.299185 -1.817515,0 -3.220163,-1.422403 -3.220163,-3.279429 0,-1.916294 1.363136,-3.358452 3.14114,-3.358452 z"
         style="font-weight:bold;font-family:Evolventa;-inkscape-font-specification:'Evolventa Bold'"
         id="path11933" />
      <path
         d="m 103.37429,32.544491 c 0.079,-0.375357 0.0988,-0.612424 0.0988,-1.007536 0,-3.397963 -2.39043,-5.887169 -5.650099,-5.887169 -3.220163,0 -5.768635,2.548473 -5.768635,5.768636 0,3.200407 2.587983,5.689612 5.92668,5.689612 1.797759,0 3.200404,-0.632179 4.346234,-1.97556 0.41487,-0.513645 0.69144,-0.968024 0.86924,-1.521181 h -2.86456 c -0.671688,0.790224 -1.323623,1.086558 -2.410181,1.086558 -1.560693,0 -2.706517,-0.829735 -3.022607,-2.15336 z m -8.55417,-2.311405 c 0.414867,-1.422404 1.48167,-2.173116 3.042362,-2.173116 1.619959,0 2.686758,0.770468 3.022608,2.173116 z"
         style="font-weight:bold;font-family:Evolventa;-inkscape-font-specification:'Evolventa Bold'"
         id="path11935" />
      <path
         d="m 105.09301,36.851212 h 2.62749 V 31.695 c 0,-1.422403 0.0988,-2.054582 0.41487,-2.568228 0.39511,-0.691446 1.08656,-1.066802 1.95581,-1.066802 0.67169,0 1.18533,0.217311 1.54093,0.651934 0.39511,0.474135 0.55316,1.284114 0.55316,2.78554 v 5.353768 h 2.62749 v -5.867414 c 0,-1.896537 -0.1778,-2.805295 -0.7112,-3.654786 -0.7112,-1.086558 -1.93605,-1.679226 -3.49674,-1.679226 -1.26436,0 -2.11385,0.355601 -3.08187,1.30387 v -1.047047 h -2.42994 z"
         style="font-weight:bold;font-family:Evolventa;-inkscape-font-specification:'Evolventa Bold'"
         id="path11937" />
      <path
         d="m 117.24269,36.851212 h 7.17129 v -2.587984 h -4.46477 V 22.251823 h -2.70652 z"
         style="font-weight:bold;font-family:Evolventa;-inkscape-font-specification:'Evolventa Bold';fill:#4f2683;fill-opacity:1"
         id="path11939" />
      <path
         d="m 125.87587,36.851212 h 2.62749 V 25.906609 h -2.62749 z m 0,-12.129939 h 2.62749 v -2.46945 h -2.62749 z"
         style="font-weight:bold;font-family:Evolventa;-inkscape-font-specification:'Evolventa Bold';fill:#4f2683;fill-opacity:1"
         id="path11941" />
      <path
         d="m 130.63695,36.851212 h 2.6275 V 31.695 c 0,-1.422403 0.0988,-2.054582 0.41486,-2.568228 0.39512,-0.691446 1.08656,-1.066802 1.95581,-1.066802 0.67169,0 1.18533,0.217311 1.54093,0.651934 0.39512,0.474135 0.55316,1.284114 0.55316,2.78554 v 5.353768 h 2.6275 v -5.867414 c 0,-1.896537 -0.1778,-2.805295 -0.71121,-3.654786 -0.7112,-1.086558 -1.93604,-1.679226 -3.49674,-1.679226 -1.26436,0 -2.11385,0.355601 -3.08187,1.30387 v -1.047047 h -2.42994 z"
         style="font-weight:bold;font-family:Evolventa;-inkscape-font-specification:'Evolventa Bold';fill:#4f2683;fill-opacity:1"
         id="path11943" />
      <path
         d="m 142.45079,36.851212 h 2.62749 v -5.116701 l 3.73381,5.116701 h 3.53625 l -4.54379,-5.590835 3.91161,-5.353768 h -3.14114 l -3.49674,5.156212 v -8.810998 h -2.62749 z"
         style="font-weight:bold;font-family:Evolventa;-inkscape-font-specification:'Evolventa Bold';fill:#4f2683;fill-opacity:1"
         id="path11945" />
    </g>
    <path
       id="rect1224-1-5-8"
       style="fill:#4f2683;fill-opacity:1;stroke-width:3.95949;stroke-linejoin:round"
       d="m 22.499495,22.499495 v 17.285254 a 14.999999,14.999999 0 0 0 2.500106,0.21497 14.999999,14.999999 0 0 0 2.500106,-0.21084 V 22.499495 Z m 0,18.299654 v 6.70037 5.00021 h 5.000212 8.499739 v -5.00021 h -8.499739 v -6.69675 a 16,16 0 0 1 -2.500106,0.19689 16,16 0 0 1 -2.500106,-0.20051 z" />
    <path
       id="path2171"
       style="fill:#000000;stroke-width:5.76659;stroke-linejoin:round"
       d="M 24.999601,10 A 15,15 0 0 0 10,24.999601 15,15 0 0 0 24.999601,39.999719 15,15 0 0 0 39.585273,28.499647 H 34.36647 a 10,10 0 0 1 -9.366869,6.500382 10,10 0 0 1 -9.999906,-10.000428 10,10 0 0 1 9.999906,-9.999906 10,10 0 0 1 10.000424,9.999906 10,10 0 0 1 -0.317812,2.500106 H 39.78888 A 15,15 0 0 0 39.999719,24.999601 15,15 0 0 0 24.999601,10 Z" />
    <path
       id="rect2424-1"
       style="fill:#4f2683;fill-opacity:1;stroke-width:5.37853;stroke-linejoin:round"
       d="m 28.499647,22.499495 v 5.000212 H 47.499518 V 47.499519 H 36.999386 v 5.00021 h 15.500345 v -5.00021 -19.999812 -5.000212 h -5.000213 z" />
  </g>
</svg>
